<svg width="104" height="37" viewBox="0 0 104 37" fill="none" xmlns="http://www.w3.org/2000/svg">
<g filter="url(#filter0_d_1_226)">
<path fill-rule="evenodd" clip-rule="evenodd" d="M66.2751 14.0158C69.1396 12.2269 68.4743 8.4286 66.6057 6.94663C64.9834 5.66028 63.6747 5.66702 58.5198 5.69356C57.6911 5.69783 56.7631 5.7026 55.7183 5.7026C55.397 5.7026 55.1358 5.96137 55.1358 6.28019V13.1969C54.7429 13.1969 54.4175 13.1946 54.1467 13.1928C52.9149 13.1843 52.8138 13.1836 52.6298 13.4363C52.5297 13.5738 52.4392 13.6944 52.3588 13.8017L52.3588 13.8018C51.9334 14.3694 51.7878 14.5637 51.9582 14.8949C52.1302 15.2277 52.2554 15.2268 53.8418 15.2153C54.1976 15.2127 54.627 15.2096 55.1468 15.2096V22.7672C55.1468 23.0861 55.4075 23.3446 55.729 23.3448C62.0322 23.3502 62.9804 23.3471 64.1414 23.1753C66.9029 22.7684 68.6301 21.001 68.7614 18.4477C68.8989 15.7993 67.319 14.7262 66.469 14.149C66.399 14.1014 66.3339 14.0572 66.2751 14.0158ZM59.7128 13.1989H59.7128C59.052 13.1963 58.2782 13.1931 57.3655 13.1926V7.78038C57.5562 7.74971 61.4148 7.75566 62.7153 7.78596C63.2305 7.79804 63.8003 7.9027 64.3626 8.08823C65.3907 8.4286 65.9547 9.18521 65.9933 10.2762C66.035 11.4719 65.554 12.3053 64.5636 12.7531C63.5431 13.2144 63.204 13.213 59.7128 13.1989ZM57.3631 15.2029V21.2842C57.3925 21.2877 57.412 21.2903 57.4315 21.2924C57.5246 21.3022 57.6192 21.2977 58.8123 21.3005C59.2417 21.3016 59.6356 21.3036 59.9983 21.3054C62.8341 21.3194 63.7629 21.324 64.8567 20.835C66.0276 20.3102 66.6321 19.2872 66.5586 17.9555C66.4001 15.0766 63.3431 15.1227 59.2676 15.184C58.6537 15.1933 58.0168 15.2029 57.3631 15.2029Z" fill="#8DD83D"/>
<path fill-rule="evenodd" clip-rule="evenodd" d="M70.5438 9.68142C73.9154 3.25308 84.0803 3.90502 86.0391 11.5642C87.4857 17.217 84.8491 23.3452 78.3816 23.7087C70.4864 24.1556 67.5415 15.4054 70.5438 9.68142ZM73.0827 9.79426C70.2391 13.5812 71.5077 21.6356 77.9431 21.6356C82.6514 21.6356 84.9524 17.0392 83.9502 12.4606C82.6769 6.64385 75.9841 5.93186 73.0827 9.79426Z" fill="#8DD83D"/>
<path d="M93.7375 14.1128C99.7267 6.05585 99.566 6.47374 99.3436 6.03688C99.1375 5.63237 98.7982 5.71974 97.6557 5.71974C97.2502 5.71974 97.5804 5.4251 92.413 12.3764C87.2628 5.45521 87.5836 5.7335 87.176 5.7335C86.0289 5.7335 85.6925 5.64761 85.4872 6.05064C85.388 6.24528 85.4077 6.47858 85.5382 6.65406L91.087 14.1136C84.4514 23.077 84.6732 22.5751 84.8958 23.0116C85.1017 23.4146 85.4386 23.3281 86.5874 23.3281C86.7725 23.3281 86.9467 23.2409 87.0564 23.0933L92.4123 15.8921L97.763 23.0803C97.987 23.3809 98.2075 23.3149 99.4017 23.3149C99.6211 23.3149 99.8223 23.1924 99.9215 22.9984C100.146 22.5589 100.339 23.0279 93.7375 14.1128Z" fill="#8DD83D"/>
<path d="M47.6894 14.1128C53.6592 6.08761 53.5214 6.47688 53.2983 6.03834C53.1991 5.84371 52.9979 5.72102 52.7782 5.72102C51.5684 5.72102 51.362 5.66004 51.1419 5.95581L46.3632 12.3778C41.2181 5.45295 41.537 5.72994 41.1296 5.72994C39.9746 5.72994 39.6509 5.64777 39.4471 6.04708C39.3481 6.24153 39.3678 6.47483 39.4981 6.65032L45.0449 14.113C38.4056 23.0738 38.6279 22.5713 38.8507 23.0082C39.0566 23.4108 39.3907 23.3249 40.5449 23.3249C40.9511 23.3249 40.5564 23.7027 46.3666 15.893C52.1821 23.7066 51.7871 23.3249 52.1922 23.3249C52.2215 23.3249 53.3793 23.3249 53.3688 23.3249C53.8771 23.3249 54.1366 22.726 53.8001 22.359L47.6894 14.1128Z" fill="#8DD83D"/>
<path d="M12.7853 2.25927C14.3127 2.44461 16.195 3.12314 18.3801 4.27607C18.5181 4.34894 18.6873 4.35099 18.8296 4.27477C20.9839 3.12165 22.8543 2.43959 24.3888 2.24737C24.8599 2.18826 24.9616 1.55082 24.5294 1.35172C20.8276 -0.352587 16.5777 -0.464126 12.6413 1.36418C12.4493 1.45341 12.34 1.65789 12.3734 1.86554C12.4068 2.07319 12.5748 2.2338 12.7853 2.25927Z" fill="#8DD83D"/>
<path d="M28.5419 23.805C28.5168 23.6232 27.823 19.271 18.8607 11.9247C18.6871 11.7825 18.4366 11.7802 18.2607 11.9196C10.3668 18.1688 7.55408 24.1463 8.84389 25.2476C11.8925 27.8546 14.8092 28.967 18.5969 28.967C22.7131 28.967 25.3221 27.5977 28.1982 25.3879C28.7532 24.9611 28.5516 23.8591 28.5456 23.8282L28.5419 23.805Z" fill="#8DD83D"/>
<path d="M28.619 4.19908C27.0127 3.94347 23.9815 6.64586 22.8068 7.77723C22.6312 7.9464 22.6139 8.22041 22.7667 8.41003C28.544 15.5717 30.0053 19.6611 30.214 21.8303C30.2335 22.0322 30.3811 22.1993 30.5802 22.2451C30.7814 22.2912 30.9871 22.2034 31.093 22.0322C32.483 19.7851 33.2176 17.1846 33.2176 14.5117C33.218 8.6147 29.1492 4.28329 28.619 4.19908Z" fill="#8DD83D"/>
<path d="M14.4025 7.77747C11.0365 4.53486 9.35503 4.18481 8.78822 4.18481C8.71772 4.18481 8.65153 4.18965 8.59134 4.19931C8.49309 4.21493 8.40253 4.26066 8.33184 4.33C3.63084 8.94955 2.54615 16.2611 6.11709 22.0328C6.20484 22.1747 6.35953 22.2579 6.52247 22.2579C6.7679 22.2579 6.97284 22.073 6.99609 21.8311C7.20459 19.6617 8.66597 15.5723 14.4427 8.41045C14.5957 8.22046 14.5784 7.94663 14.4025 7.77747Z" fill="#8DD83D"/>
<path d="M9.68034 21.4277C8.88994 22.8452 8.70867 23.6671 8.70332 23.6935C8.63207 24.1203 8.59177 24.9603 8.93463 25.2477C12.0403 27.8548 15.0117 28.9672 18.8703 28.9672C19.5772 28.9672 20.2372 28.925 20.8654 28.8499C16.0317 28.2604 11.9188 25.4154 9.68034 21.4277Z" fill="#79C422"/>
<path d="M7.86914 14.5039C7.86914 10.9496 9.18884 7.69673 11.3744 5.17856C10.0211 4.3186 9.23354 4.18457 8.87806 4.18457C8.80624 4.18457 8.73882 4.1894 8.6775 4.19907C8.57741 4.21469 8.48515 4.26042 8.41314 4.32976C3.62411 8.94931 2.51911 16.2608 6.15692 22.0326C6.24631 22.1744 6.4039 22.2577 6.56988 22.2577C6.81992 22.2577 7.02869 22.0727 7.05238 21.8309C7.14368 20.8992 7.47165 19.6122 8.28077 17.8811C8.01412 16.7972 7.86914 15.6675 7.86914 14.5039Z" fill="#79C422"/>
<path d="M14.3773 2.54129C16.2505 1.30005 18.4313 0.467973 20.7843 0.168306C17.8174 -0.21836 15.2244 0.26014 12.8031 1.364C12.6075 1.45323 12.4962 1.65772 12.5302 1.86536C12.6112 2.36022 12.9976 2.17525 14.3773 2.54129Z" fill="#79C422"/>
</g>
<defs>
<filter id="filter0_d_1_226" x="0.00012207" y="0.032959" width="104" height="36.9342" filterUnits="userSpaceOnUse" color-interpolation-filters="sRGB">
<feFlood flood-opacity="0" result="BackgroundImageFix"/>
<feColorMatrix in="SourceAlpha" type="matrix" values="0 0 0 0 0 0 0 0 0 0 0 0 0 0 0 0 0 0 127 0" result="hardAlpha"/>
<feOffset dy="4"/>
<feGaussianBlur stdDeviation="2"/>
<feComposite in2="hardAlpha" operator="out"/>
<feColorMatrix type="matrix" values="0 0 0 0 0 0 0 0 0 0 0 0 0 0 0 0 0 0 0.25 0"/>
<feBlend mode="normal" in2="BackgroundImageFix" result="effect1_dropShadow_1_226"/>
<feBlend mode="normal" in="SourceGraphic" in2="effect1_dropShadow_1_226" result="shape"/>
</filter>
</defs>
</svg>
